<?xml version="1.0" standalone="no"?>
<!DOCTYPE svg PUBLIC "-//W3C//DTD SVG 20010904//EN"
 "http://www.w3.org/TR/2001/REC-SVG-20010904/DTD/svg10.dtd">
<svg version="1.0" xmlns="http://www.w3.org/2000/svg"
 width="279.000000pt" height="279.000000pt" viewBox="0 0 279.000000 279.000000"
 preserveAspectRatio="xMidYMid meet">
<metadata>
Created by potrace 1.11, written by Peter Selinger 2001-2013
</metadata>
<g transform="translate(0.000000,279.000000) scale(0.100000,-0.100000)"
fill="#000000" stroke="none">
<path d="M1290 2778 c0 -5 -5 -6 -10 -3 -6 4 -23 0 -38 -8 -70 -37 -87 -47
-87 -54 0 -4 -12 -7 -27 -8 -16 -1 -40 -12 -55 -26 -14 -13 -22 -17 -18 -9 8
13 7 13 -9 1 -9 -8 -15 -20 -12 -28 3 -7 0 -13 -7 -13 -8 0 -8 -3 2 -9 10 -7
9 -11 -7 -23 -11 -8 -22 -20 -24 -28 -2 -8 -8 -20 -15 -27 -14 -16 -5 -53 13
-53 16 0 7 -29 -15 -48 -13 -11 -13 -12 -1 -6 13 7 13 6 0 -12 -8 -10 -23 -27
-35 -36 -13 -11 -15 -18 -7 -18 10 0 12 -10 7 -39 -6 -36 5 -80 19 -73 16 6
26 0 26 -17 0 -11 5 -23 12 -27 7 -5 8 -2 3 7 -5 8 -4 11 1 6 5 -5 9 -16 9
-25 1 -26 15 -62 25 -62 5 0 6 -26 3 -57 -3 -32 -7 -123 -8 -203 -1 -132 1
-150 22 -199 15 -35 42 -72 75 -102 l52 -48 3 -140 c2 -106 0 -141 -10 -141
-6 0 -32 -14 -56 -30 -24 -17 -51 -30 -61 -30 -9 0 -45 -24 -81 -53 -35 -30
-78 -57 -94 -61 -17 -4 -51 -21 -78 -37 -26 -16 -56 -29 -66 -29 -43 0 -113
-31 -162 -71 -99 -82 -118 -101 -135 -138 -74 -160 -120 -249 -138 -269 -17
-20 -21 -38 -22 -125 -3 -126 -1 -117 -19 -117 -15 0 -37 -33 -42 -65 -2 -11
-8 -24 -13 -29 -6 -6 -10 -20 -10 -32 0 -13 -4 -25 -9 -28 -5 -3 -8 -30 -6
-59 1 -28 -2 -58 -7 -65 -8 -9 223 -12 1151 -12 766 0 1161 3 1162 10 3 20 4
25 11 36 4 6 10 37 13 70 3 32 7 70 10 84 3 14 8 43 10 65 8 63 33 139 60 186
14 24 25 58 25 74 0 37 -25 75 -49 75 -39 0 -46 27 -47 174 -1 78 -4 148 -7
156 -3 8 -8 26 -10 40 -11 54 -16 69 -41 116 -41 79 -47 84 -177 151 -56 29
-83 37 -132 38 -43 1 -73 8 -97 23 -23 13 -52 21 -83 20 -37 0 -59 8 -100 33
-60 39 -64 42 -98 89 -34 47 -35 135 -1 177 37 47 146 206 159 233 38 80 83
183 83 191 0 5 4 9 8 9 10 0 11 6 16 78 4 56 -8 106 -44 187 -65 147 -82 174
-128 214 -27 22 -61 52 -76 66 -15 14 -33 25 -41 25 -7 0 -26 13 -42 28 -38
38 -96 64 -129 58 -15 -3 -34 0 -42 7 -8 7 -17 11 -19 9 -10 -8 -53 12 -53 25
0 10 -7 14 -20 10 -11 -3 -22 -1 -25 3 -3 5 -13 9 -23 8 -9 0 -38 4 -64 10
-29 6 -48 6 -48 0z"/>
</g>
</svg>
